<svg xmlns="http://www.w3.org/2000/svg" version="1.1" xmlns:xlink="http://www.w3.org/1999/xlink" xmlns:svgjs="http://svgjs.dev/svgjs" width="1000" height="1000" viewBox="0 0 1000 1000"><rect width="1000" height="1000" fill="#102e44"></rect><g transform="matrix(0.7,0,0,0.7,149.57576133962345,405.34935153120165)"><svg viewBox="0 0 396 107" data-background-color="#102e44" preserveAspectRatio="xMidYMid meet" height="270" width="1000" xmlns="http://www.w3.org/2000/svg" xmlns:xlink="http://www.w3.org/1999/xlink"><defs></defs><g id="tight-bounds" transform="matrix(1,0,0,1,0.2399978707272794,0.085287757467853)"><svg viewBox="0 0 395.52 106.82942448506428" height="106.82942448506428" width="395.52"><g><svg viewBox="0 0 915.2211057138989 247.2" height="106.82942448506428" width="395.52"><g><svg viewBox="0 0 915.2211057138989 247.2" height="247.2" width="915.2211057138989"><g><svg viewBox="0 0 915.2211057138989 247.2" height="247.2" width="915.2211057138989"><g><svg viewBox="0 0 915.2211057138989 247.2" height="247.2" width="915.2211057138989"><g><svg><g></g><g></g></svg></g><g><svg><g><svg></svg></g><g></g></svg></g><g id="text-0"><svg viewBox="0 0 915.2211057138989 247.2" height="247.2" width="915.2211057138989"><g transform="matrix(1,0,0,1,0,47.06519999999999)"><svg width="197.9009441654358" viewBox="-0.05000000447034836 -33.849998474121094 43.849998474121094 33.849998474121094" height="152.7696" data-palette-color="#ffffff"><path d="M-0.05 0L12.8-33.85 20.15-33.85 32.55 0 24.2 0 21.7-8.15 10.75-8.15 8.15 0-0.05 0ZM12.65-14.25L19.85-14.25Q19.35-15.7 18.82-17.28 18.3-18.85 17.82-20.35 17.35-21.85 16.95-23.18 16.55-24.5 16.25-25.4L16.25-25.4Q15.95-24.45 15.55-23.13 15.15-21.8 14.68-20.3 14.2-18.8 13.68-17.25 13.15-15.7 12.65-14.25L12.65-14.25ZM35.55 0L35.55-33.85 43.8-33.85 43.8 0 35.55 0Z" opacity="1" transform="matrix(1,0,0,1,0,0)" fill="#ffffff" class="undefined-s-0"></path></svg></g><g><svg xmlns="http://www.w3.org/2000/svg" xmlns:xlink="http://www.w3.org/1999/xlink" version="1.1" x="211.11814416543578" y="0" viewBox="7.220189094543457 5 85.56021118164062 90" enable-background="new 0 0 100 100" xml:space="preserve" height="247.2" width="235.0053800455729" class="icon-x-0" data-fill-palette-color="accent" id="x-0"><path d="M17.208 61.153c2.829 3.431 5.271 6.394 5.271 9.309 0 5.909-8.847 22.936-8.937 23.107-0.158 0.304-0.146 0.667 0.031 0.96C13.751 94.821 14.068 95 14.41 95h41.277c0.297 0 0.577-0.135 0.764-0.367 2.261-2.825 2.469-6.39 2.636-9.253 0.102-1.74 0.207-3.542 0.834-3.878 0.021-0.013 0.232-0.114 0.961-0.114 1.341 0 3.423 0.329 5.835 0.712 3.211 0.507 6.849 1.083 10.034 1.083 2.533 0 4.429-0.367 5.795-1.121 4.818-2.658 2.562-7.042 1.35-9.398-0.316-0.614-0.75-1.457-0.75-1.727 0-0.304 0.698-0.645 1.313-0.945 1.079-0.526 2.558-1.248 2.558-2.921 0-1.539-1.174-2.099-2.173-2.364 1.494-0.193 3.491-0.564 3.491-2.449 0-1.347-0.669-2.193-1.207-2.874-0.486-0.615-0.87-1.101-0.876-1.921 0.141-0.309 1.361-0.795 2.091-1.085 1.705-0.679 3.636-1.446 4.254-3.145 0.347-0.954 0.201-2.036-0.433-3.214-1.122-2.083-2.868-3.65-4.557-5.168-2.495-2.24-4.649-4.175-4.649-7.363 0-6.087 0-15.285-4.863-20.75C72.93 10.934 65.008 5 45.414 5 35.018 5 20.042 9.079 12.047 20.577c-5.563 7.999-6.333 18.067-2.229 29.118C11.504 54.237 14.534 57.911 17.208 61.153zM13.654 21.694c7.079-10.181 21.052-14.738 31.76-14.738 18.821 0 26.343 5.603 31.219 11.082 4.369 4.909 4.369 13.659 4.369 19.449 0 4.062 2.693 6.48 5.298 8.819 1.564 1.404 3.182 2.856 4.141 4.639 0.359 0.666 0.465 1.211 0.317 1.618-0.318 0.874-1.816 1.47-3.138 1.995-1.632 0.649-3.319 1.321-3.319 2.874 0 1.528 0.717 2.435 1.293 3.164 0.501 0.634 0.784 1.024 0.783 1.689-0.175 0.28-1.507 0.446-2.077 0.518-1.325 0.164-2.975 0.369-2.921 1.851 0.047 1.361 1.426 1.629 2.337 1.806 1.211 0.236 1.344 0.374 1.344 0.61 0 0.419-0.578 0.732-1.459 1.162-1.018 0.498-2.412 1.178-2.412 2.704 0 0.744 0.428 1.573 0.967 2.623 1.522 2.956 2.373 5.174-0.555 6.788-1.055 0.583-2.687 0.878-4.85 0.878-3.032 0-6.59-0.563-9.729-1.059-2.493-0.395-4.646-0.736-6.141-0.736-0.848 0-1.448 0.111-1.889 0.348-1.588 0.855-1.715 3.002-1.858 5.487-0.144 2.454-0.32 5.477-1.936 7.778H16.008c2.184-4.335 8.427-17.198 8.427-22.582 0-3.617-2.649-6.832-5.718-10.553-2.575-3.123-5.493-6.663-7.065-10.896C7.781 38.592 8.473 29.145 13.654 21.694z" fill="#b2fcfb" data-fill-palette-color="accent"></path><path d="M47.022 32.826c0.615 0.151 1.246 0.229 1.877 0.229 3.583 0 6.727-2.405 7.647-5.847 1.089-4.051-1.327-8.245-5.383-9.35-0.036-0.01-0.085-0.021-0.136-0.032-0.054-0.012-0.11-0.023-0.16-0.039-0.564-0.128-1.143-0.193-1.721-0.193-3.591 0-6.742 2.403-7.664 5.844-0.539 1.999-0.257 4.077 0.792 5.852C43.328 31.072 45.014 32.327 47.022 32.826zM42.629 23.744c0.769-2.875 3.504-4.963 6.504-4.963 0.494 0 0.987 0.057 1.468 0.168 0.054 0.012 0.142 0.028 0.209 0.041l0.042 0.007c3.424 0.938 5.465 4.482 4.551 7.901-0.786 2.924-3.457 4.966-6.498 4.966 0 0 0 0 0 0-0.542 0-1.085-0.067-1.614-0.198-1.688-0.416-3.109-1.473-4.002-2.974C42.41 27.172 42.175 25.415 42.629 23.744z" fill="#b2fcfb" data-fill-palette-color="accent"></path><path d="M34.835 23.931l2.51 1.137c-0.018 0.6 0.007 1.188 0.075 1.756l-2.343 1.368c-0.326 0.175-0.486 0.618-0.35 0.968l1.109 2.868c0.137 0.354 0.529 0.568 0.896 0.493l2.638-0.543c0.378 0.536 0.753 0.993 1.143 1.391L39.38 35.95c-0.086 0.339 0.051 0.692 0.342 0.88l2.572 1.659c0.307 0.214 0.758 0.161 1.015-0.114l1.878-2.068c0.251 0.089 0.51 0.156 0.761 0.223l0.074 0.019c0.23 0.063 0.484 0.116 0.814 0.172l0.59 2.759c0.086 0.36 0.397 0.612 0.756 0.612 0.022 0 0.044-0.001 0.062-0.002l3.076-0.152c0.34-0.022 0.632-0.262 0.729-0.613l0.326-2.962c0.504-0.153 1-0.351 1.514-0.601l2.165 1.938c0.289 0.246 0.717 0.258 1.031 0.021l2.385-1.93c0.292-0.229 0.375-0.694 0.182-1.015l-1.425-2.481c0.333-0.422 0.638-0.875 0.93-1.384l2.831 0.291c0.37 0.045 0.742-0.217 0.836-0.587l0.802-2.975c0.1-0.37-0.089-0.768-0.439-0.927l-2.504-1.132c0.018-0.592-0.008-1.181-0.074-1.755l2.354-1.375c0.317-0.178 0.473-0.618 0.34-0.962l-1.104-2.878c-0.127-0.307-0.412-0.504-0.729-0.504-0.058 0-0.115 0.007-0.17 0.02l-2.638 0.543c-0.401-0.565-0.767-1.012-1.142-1.394l1.088-2.474 0.046-0.108c0.083-0.337-0.054-0.691-0.342-0.885l-2.582-1.665c-0.307-0.21-0.755-0.151-1.007 0.128l-1.876 2.063c-0.289-0.097-0.559-0.173-0.838-0.237-0.253-0.071-0.51-0.12-0.813-0.173l-0.589-2.759c-0.086-0.359-0.399-0.61-0.763-0.61-0.02 0-0.04 0.001-0.056 0.001l-3.072 0.15c-0.343 0.017-0.629 0.249-0.733 0.614l-0.326 2.964c-0.507 0.156-1.004 0.351-1.516 0.59l-2.161-1.923c-0.276-0.255-0.708-0.269-1.031-0.028l-2.381 1.925c-0.301 0.234-0.386 0.702-0.188 1.018l1.421 2.485c-0.331 0.417-0.634 0.87-0.925 1.383l-2.831-0.297c-0.396-0.021-0.743 0.222-0.839 0.576l-0.801 2.99C34.305 23.371 34.49 23.769 34.835 23.931zM39.806 20.5c0.324-0.581 0.679-1.113 1.057-1.584 0.205-0.255 0.238-0.646 0.079-0.929l-1.375-2.419 1.872-1.507 2.09 1.856c0.243 0.22 0.618 0.271 0.938 0.124 0.538-0.272 1.12-0.501 1.733-0.681 0.283-0.093 0.497-0.313 0.579-0.607l0.337-2.876 2.388-0.118 0.589 2.651c0.054 0.323 0.335 0.588 0.687 0.646 0.282 0.043 0.614 0.1 0.951 0.189 0.339 0.086 0.647 0.18 0.943 0.286 0.312 0.107 0.695 0.006 0.896-0.234l1.809-1.966 2.007 1.296-1.031 2.387-0.06 0.126c-0.069 0.294 0.017 0.602 0.223 0.802 0.495 0.5 0.927 1.029 1.282 1.577 0.154 0.229 0.422 0.371 0.697 0.371 0.061 0 0.121-0.008 0.174-0.021l2.544-0.514 0.859 2.242-2.256 1.323c-0.274 0.16-0.445 0.501-0.417 0.836 0.102 0.656 0.13 1.326 0.087 1.994-0.015 0.347 0.182 0.675 0.489 0.817l2.408 1.09-0.62 2.321-2.721-0.271c-0.322-0.018-0.672 0.158-0.821 0.438-0.313 0.567-0.679 1.115-1.057 1.586-0.203 0.255-0.237 0.655-0.077 0.932l1.375 2.417-1.873 1.505-2.09-1.862c-0.256-0.216-0.643-0.27-0.933-0.125-0.53 0.271-1.112 0.499-1.733 0.681-0.282 0.091-0.504 0.32-0.581 0.614l-0.336 2.87-2.391 0.118-0.584-2.655c-0.065-0.315-0.342-0.571-0.691-0.633-0.281-0.048-0.614-0.108-0.948-0.198-0.259-0.065-0.602-0.158-0.949-0.279-0.085-0.032-0.176-0.048-0.27-0.048-0.238 0-0.47 0.102-0.621 0.272l-1.815 1.973-2-1.3 1.034-2.393 0.042-0.115c0.079-0.275 0.001-0.585-0.206-0.813-0.465-0.459-0.899-0.991-1.291-1.585-0.148-0.214-0.427-0.358-0.694-0.358-0.059 0-0.117 0.007-0.167 0.021l-2.543 0.516-0.865-2.238 2.255-1.323c0.275-0.162 0.448-0.516 0.411-0.844-0.1-0.692-0.124-1.362-0.072-1.998 0.01-0.339-0.186-0.663-0.491-0.811l-2.417-1.086 0.618-2.323 2.726 0.271C39.308 20.968 39.645 20.788 39.806 20.5z" fill="#b2fcfb" data-fill-palette-color="accent"></path></svg></g><g transform="matrix(1,0,0,1,459.34072421100865,46.99019999999999)"><svg width="455.88038150289015" viewBox="3.0999999046325684 -34.29999923706055 103.23999786376953 34.599998474121094" height="152.7696" data-palette-color="#ffffff"><path d="M3.1 0L3.1-33.85Q3.45-33.85 4.78-33.88 6.1-33.9 7.7-33.9 9.3-33.9 10.9-33.93 12.5-33.95 13.5-33.95L13.5-33.95Q19.9-33.95 23.1-31.23 26.3-28.5 26.3-23.65L26.3-23.65Q26.3-18.3 22.7-15.63 19.1-12.95 12.85-12.95L12.85-12.95 11.35-12.95 11.35 0 3.1 0ZM11.35-28.4L11.35-18.4 13.45-18.4Q15.15-18.4 16.4-19.58 17.65-20.75 17.65-23.25L17.65-23.25Q17.65-25.35 16.63-26.9 15.6-28.45 13.2-28.5L13.2-28.5Q12.55-28.5 12.1-28.48 11.65-28.45 11.35-28.4L11.35-28.4ZM22.65 0L35.5-33.85 42.85-33.85 55.25 0 46.9 0 44.4-8.15 33.45-8.15 30.85 0 22.65 0ZM35.35-14.25L42.55-14.25Q42.05-15.7 41.52-17.28 41-18.85 40.52-20.35 40.05-21.85 39.65-23.18 39.25-24.5 38.95-25.4L38.95-25.4Q38.65-24.45 38.25-23.13 37.85-21.8 37.37-20.3 36.9-18.8 36.37-17.25 35.85-15.7 35.35-14.25L35.35-14.25ZM68.5-34.3L68.5-34.3Q70.3-34.3 71.97-34 73.65-33.7 75.1-33.25 76.55-32.8 77.72-32.23 78.9-31.65 79.75-31.05L79.75-31.05 76.85-25.55Q76.25-25.85 75.4-26.33 74.55-26.8 73.57-27.25 72.6-27.7 71.57-28 70.55-28.3 69.6-28.3L69.6-28.3Q67.85-28.3 67-27.58 66.15-26.85 66.15-25.75L66.15-25.75Q66.2-24.9 66.55-24.25 66.9-23.6 67.6-22.98 68.3-22.35 69.4-21.75 70.5-21.15 72.1-20.5L72.1-20.5Q74.1-19.65 75.6-18.75 77.1-17.85 78.07-16.7 79.05-15.55 79.55-14.1 80.05-12.65 80.05-10.75L80.05-10.75Q80.05-8.45 79.22-6.43 78.4-4.4 76.85-2.9 75.3-1.4 73.1-0.55 70.9 0.3 68.15 0.3L68.15 0.3Q66.2 0.3 64.42-0.05 62.65-0.4 61.15-0.95 59.65-1.5 58.4-2.13 57.15-2.75 56.25-3.3L56.25-3.3 58.95-9.2Q59.3-8.95 60.25-8.38 61.2-7.8 62.4-7.23 63.6-6.65 64.85-6.2 66.1-5.75 67.1-5.75L67.1-5.75Q69.2-5.75 70.17-6.73 71.15-7.7 71.15-9.5L71.15-9.5Q71.15-11.3 69.92-12.23 68.7-13.15 66.45-14.05L66.45-14.05Q64.25-14.95 62.55-15.95 60.85-16.95 59.67-18.2 58.5-19.45 57.87-21 57.25-22.55 57.25-24.6L57.25-24.6Q57.25-26.85 58.17-28.63 59.1-30.4 60.65-31.68 62.2-32.95 64.22-33.63 66.25-34.3 68.5-34.3ZM94.79-34.3L94.79-34.3Q96.59-34.3 98.27-34 99.94-33.7 101.39-33.25 102.84-32.8 104.02-32.23 105.19-31.65 106.04-31.05L106.04-31.05 103.14-25.55Q102.54-25.85 101.69-26.33 100.84-26.8 99.87-27.25 98.89-27.7 97.87-28 96.84-28.3 95.89-28.3L95.89-28.3Q94.14-28.3 93.29-27.58 92.44-26.85 92.44-25.75L92.44-25.75Q92.49-24.9 92.84-24.25 93.19-23.6 93.89-22.98 94.59-22.35 95.69-21.75 96.79-21.15 98.39-20.5L98.39-20.5Q100.39-19.65 101.89-18.75 103.39-17.85 104.37-16.7 105.34-15.55 105.84-14.1 106.34-12.65 106.34-10.75L106.34-10.75Q106.34-8.45 105.52-6.43 104.69-4.4 103.14-2.9 101.59-1.4 99.39-0.55 97.19 0.3 94.44 0.3L94.44 0.3Q92.49 0.3 90.72-0.05 88.94-0.4 87.44-0.95 85.94-1.5 84.69-2.13 83.44-2.75 82.54-3.3L82.54-3.3 85.24-9.2Q85.59-8.95 86.54-8.38 87.49-7.8 88.69-7.23 89.89-6.65 91.14-6.2 92.39-5.75 93.39-5.75L93.39-5.75Q95.49-5.75 96.47-6.73 97.44-7.7 97.44-9.5L97.44-9.5Q97.44-11.3 96.22-12.23 94.99-13.15 92.74-14.05L92.74-14.05Q90.54-14.95 88.84-15.95 87.14-16.95 85.97-18.2 84.79-19.45 84.17-21 83.54-22.55 83.54-24.6L83.54-24.6Q83.54-26.85 84.47-28.63 85.39-30.4 86.94-31.68 88.49-32.95 90.52-33.63 92.54-34.3 94.79-34.3Z" opacity="1" transform="matrix(1,0,0,1,0,0)" fill="#ffffff" class="undefined-s-1"></path></svg></g></svg></g></svg></g></svg></g></svg></g><g></g></svg></g></svg><rect width="395.52" height="106.82942448506428" fill="none" stroke="none" visibility="hidden"></rect></g></svg></g></svg>